<?xml version="1.0" encoding="UTF-8" ?>
<!DOCTYPE svg PUBLIC "-//W3C//DTD SVG 1.1//EN" "http://www.w3.org/Graphics/SVG/1.1/DTD/svg11.dtd">
<svg width="444pt" height="345pt" viewBox="0 0 444 345" version="1.1" xmlns="http://www.w3.org/2000/svg">
<g id="#fdfefcff">
</g>
<g id="#1c7540ff">
<path fill="#1c7540" opacity="1.00" d=" M 184.19 11.82 C 209.55 8.17 235.47 8.17 260.80 12.12 C 291.00 16.99 320.11 27.57 347.10 41.86 C 360.10 49.02 369.51 62.29 371.68 77.01 C 374.43 95.42 374.62 114.10 373.53 132.64 C 371.00 131.82 368.45 131.03 365.93 130.19 C 364.23 129.49 362.54 128.81 360.82 128.21 C 358.38 127.10 355.95 126.01 353.44 125.09 C 353.75 110.78 354.30 96.36 352.29 82.14 C 351.48 76.75 349.87 71.23 346.20 67.06 C 340.40 60.01 331.60 56.72 323.64 52.79 C 295.10 39.79 264.30 31.38 232.95 29.46 C 189.07 27.33 145.10 38.77 106.45 59.29 C 96.86 64.15 91.10 74.44 90.37 84.97 C 88.66 96.54 89.34 108.28 89.34 119.93 C 89.21 125.14 90.33 130.25 90.51 135.44 C 87.74 136.28 84.85 136.47 82.03 137.05 C 79.29 137.67 76.56 138.32 73.79 138.78 C 72.75 139.06 71.70 139.33 70.66 139.59 C 68.98 124.82 67.96 109.87 69.33 95.02 C 69.72 84.89 70.50 74.42 74.84 65.09 C 78.68 56.57 84.72 48.90 92.58 43.74 C 96.10 41.52 99.83 39.65 103.54 37.76 C 129.00 25.34 156.19 16.31 184.19 11.82 Z" />
<path fill="#1c7540" opacity="1.00" d=" M 195.76 95.24 C 214.16 90.24 233.55 91.01 252.20 94.03 C 269.86 97.09 286.81 103.32 303.05 110.80 C 319.06 118.15 334.13 127.37 350.09 134.82 C 359.31 139.12 369.05 142.57 379.17 143.84 C 390.69 146.13 402.48 143.15 413.01 138.46 C 416.74 136.61 421.06 135.58 425.17 136.70 C 428.68 138.34 431.49 141.97 431.40 145.95 C 431.66 150.30 428.04 153.69 428.19 158.02 C 427.34 165.75 431.73 172.51 433.97 179.60 C 438.29 192.24 440.96 205.83 439.19 219.19 C 437.17 232.62 426.86 244.21 413.93 248.15 C 410.75 249.21 407.41 249.53 404.15 250.18 C 401.65 250.36 399.13 250.45 396.63 250.50 C 393.12 256.46 389.48 262.54 383.95 266.87 C 377.81 271.54 370.73 275.50 362.96 276.41 C 352.96 277.91 342.18 277.04 333.18 272.15 C 336.69 266.48 340.61 261.08 343.98 255.32 C 349.83 256.99 356.11 258.12 362.06 256.18 C 371.42 253.48 378.65 244.87 379.98 235.25 C 381.51 224.81 375.66 214.21 366.60 209.07 C 368.76 202.82 370.74 196.51 372.58 190.15 C 381.52 193.89 389.20 200.46 394.03 208.90 C 398.11 215.32 399.75 222.87 400.55 230.35 C 405.85 229.65 411.80 228.85 415.41 224.43 C 420.97 217.63 419.75 208.15 418.74 200.06 C 417.38 186.66 408.38 175.32 408.02 161.73 C 404.03 162.13 400.22 163.63 396.26 164.28 C 382.53 165.33 368.72 163.86 354.98 164.91 C 336.24 166.44 317.55 170.30 300.03 177.24 C 276.01 187.27 255.01 203.01 234.02 218.12 C 201.50 241.21 167.36 264.32 127.85 273.20 C 109.34 276.98 89.39 280.78 71.15 273.76 C 60.73 269.29 51.51 261.23 46.99 250.68 C 38.94 250.58 30.88 250.64 22.84 250.18 C 17.38 249.61 11.48 248.53 7.45 244.47 C 4.26 241.20 3.54 236.39 3.66 232.01 C 3.83 218.27 3.17 203.84 9.17 191.08 C 15.63 176.94 28.59 167.10 42.14 160.25 C 43.06 159.75 43.98 159.27 44.90 158.79 C 46.58 158.18 48.24 157.52 49.88 156.82 C 53.26 155.56 56.59 154.13 60.05 153.11 C 65.32 151.57 70.64 150.25 75.94 148.81 C 78.97 148.21 82.00 147.62 85.04 147.10 C 87.03 146.60 89.07 146.41 91.09 146.16 C 93.05 145.66 95.06 145.42 97.05 145.13 C 107.93 143.36 119.20 141.56 128.68 135.55 C 136.90 130.30 144.29 123.88 151.99 117.91 C 164.99 107.73 179.62 99.25 195.76 95.24 M 190.87 117.72 C 184.71 120.21 178.85 123.37 173.40 127.17 C 158.25 136.99 145.86 151.01 129.10 158.30 C 126.13 159.33 123.14 160.28 120.16 161.25 C 111.92 163.57 103.40 164.53 94.97 165.88 C 76.12 169.36 56.66 173.51 40.48 184.33 C 31.86 190.22 25.08 199.59 24.35 210.23 C 24.06 216.71 23.41 223.24 24.26 229.70 C 30.65 229.61 37.03 229.76 43.41 229.76 C 43.67 213.06 54.63 197.45 69.80 190.73 C 78.02 186.79 87.26 186.84 96.14 187.59 C 110.71 189.97 123.56 200.24 129.29 213.83 C 129.89 215.55 130.50 217.28 131.10 219.01 C 131.42 220.34 131.74 221.70 132.16 223.01 C 133.04 228.74 132.90 234.56 132.29 240.31 C 125.16 242.72 117.65 244.86 110.06 244.57 C 113.86 238.46 113.70 230.49 111.33 223.87 C 108.91 216.33 102.43 210.51 95.00 208.10 C 86.44 205.85 76.59 207.85 70.41 214.43 C 59.68 224.27 61.50 243.53 73.21 251.83 C 80.91 257.52 90.99 257.74 100.16 257.26 L 100.84 256.77 C 103.88 256.72 106.93 256.60 109.89 255.92 C 126.97 253.63 143.63 248.50 159.12 240.96 C 179.02 231.04 197.94 219.24 215.88 206.12 C 237.58 190.75 258.96 174.64 282.86 162.75 C 286.29 161.26 289.66 159.63 293.14 158.22 C 294.37 157.73 295.59 157.22 296.83 156.72 C 305.38 153.58 314.12 150.92 323.05 149.07 C 324.66 148.64 326.31 148.42 327.96 148.20 C 327.80 147.67 327.47 146.62 327.31 146.09 C 318.85 141.78 310.64 136.92 302.08 132.75 C 300.99 132.25 299.91 131.75 298.83 131.25 C 295.20 129.51 291.60 127.71 287.87 126.18 C 286.21 125.49 284.55 124.80 282.86 124.18 C 281.62 123.70 280.38 123.22 279.14 122.74 C 276.73 121.84 274.32 120.93 271.86 120.18 C 268.58 119.03 265.26 117.99 261.90 117.15 C 255.65 115.44 249.31 113.97 242.89 113.14 C 233.42 111.62 223.66 110.76 214.13 112.15 C 206.13 112.77 198.36 114.93 190.87 117.72 Z" />
<path fill="#1c7540" opacity="1.00" d=" M 344.62 176.49 C 347.05 175.81 349.55 175.41 352.08 175.44 C 356.67 175.48 361.18 174.49 365.78 174.63 C 363.43 186.97 358.85 198.74 354.60 210.52 C 343.73 237.37 329.03 262.96 309.14 284.18 C 302.89 291.88 295.28 298.30 288.00 304.98 C 270.38 319.51 250.90 332.54 228.90 339.32 C 219.97 342.30 210.80 338.89 202.57 335.44 C 177.84 324.68 155.97 308.08 137.45 288.60 C 135.72 286.86 133.99 285.09 132.91 282.87 C 139.86 281.37 146.74 279.40 153.21 276.41 C 159.23 281.90 164.93 287.76 171.43 292.70 C 183.75 303.09 197.87 311.17 212.52 317.80 C 216.27 319.26 220.28 321.83 224.41 320.12 C 257.00 308.05 284.42 284.78 305.38 257.42 C 323.37 233.21 336.54 205.53 344.62 176.49 Z" />
</g>
</svg>
