<?xml version="1.0" encoding="UTF-8" ?>
<!DOCTYPE svg PUBLIC "-//W3C//DTD SVG 1.1//EN" "http://www.w3.org/Graphics/SVG/1.1/DTD/svg11.dtd">
<svg width="409pt" height="79pt" viewBox="0 0 409 79" version="1.1" xmlns="http://www.w3.org/2000/svg">
<g id="#fafef8ff">
</g>
<g id="#2d6b40ff">
<path fill="#2d6b40" opacity="1.00" d=" M 3.57 11.22 C 3.37 7.36 6.11 3.57 9.96 2.86 C 13.27 2.28 16.97 2.25 19.89 4.14 C 22.52 5.75 23.24 9.11 23.27 11.98 C 23.26 18.89 23.26 25.81 23.24 32.73 C 27.56 29.54 33.47 30.90 37.80 27.80 C 43.94 23.68 46.97 16.57 48.82 9.68 C 50.60 1.81 62.22 -0.08 67.00 6.01 C 69.16 8.51 68.66 12.11 67.85 15.04 C 65.11 24.29 60.26 33.26 52.35 39.07 C 59.16 43.65 63.30 50.98 66.76 58.22 C 68.43 61.92 70.94 65.82 70.06 70.04 C 67.74 78.58 53.50 78.73 50.27 70.77 C 47.05 63.70 44.54 55.69 38.20 50.71 C 33.89 47.08 27.47 48.87 23.23 45.05 C 23.28 52.03 23.25 59.02 23.28 66.00 C 23.27 69.56 22.35 74.03 18.60 75.45 C 14.61 77.00 9.40 76.83 6.00 73.99 C 3.72 72.01 3.45 68.81 3.51 65.99 C 3.45 47.74 3.33 29.47 3.57 11.22 Z" />
<path fill="#2d6b40" opacity="1.00" d=" M 81.24 12.19 C 88.33 5.36 98.43 2.96 108.01 2.77 C 114.32 2.75 120.63 2.74 126.94 2.76 C 129.59 2.75 132.60 3.33 134.35 5.51 C 136.60 8.69 136.61 13.25 134.59 16.53 C 131.97 20.22 126.96 19.59 123.01 19.64 C 115.73 19.83 108.31 18.88 101.15 20.56 C 94.71 22.35 91.12 28.99 90.30 35.23 C 89.93 39.51 90.02 43.91 91.31 48.05 C 93.00 53.69 98.04 58.31 103.98 58.93 C 113.01 60.19 122.21 58.77 131.26 59.72 C 137.05 61.75 136.76 69.58 134.07 74.05 C 128.32 77.57 121.35 75.70 115.01 76.16 C 104.71 76.55 93.68 75.97 84.97 69.82 C 74.84 63.21 70.50 50.62 70.62 38.97 C 70.79 29.22 73.84 18.94 81.24 12.19 Z" />
<path fill="#2d6b40" opacity="1.00" d=" M 165.65 3.99 C 174.98 2.09 184.54 2.94 193.99 2.76 C 197.51 2.63 202.28 3.44 203.28 7.47 C 203.87 10.95 204.39 15.63 201.04 17.92 C 199.67 19.16 197.79 19.54 196.00 19.56 C 188.32 19.72 180.63 19.31 172.97 19.79 C 166.26 20.14 160.52 25.41 158.75 31.74 C 157.41 38.01 157.45 44.84 160.32 50.70 C 162.61 55.58 167.71 58.74 173.02 59.21 C 181.54 59.89 190.12 59.01 198.63 59.67 C 204.34 61.14 204.94 68.99 202.30 73.34 C 199.39 76.31 194.90 76.23 191.04 76.17 C 181.26 75.91 171.22 77.11 161.73 74.10 C 153.27 71.33 145.66 65.23 142.13 56.94 C 137.33 45.48 137.47 31.92 142.78 20.67 C 147.09 11.76 156.03 5.75 165.65 3.99 Z" />
<path fill="#2d6b40" opacity="1.00" d=" M 210.38 11.90 C 210.11 7.59 213.68 3.61 217.97 3.36 C 227.30 2.61 236.67 2.87 246.02 3.13 C 252.81 3.28 259.94 4.37 265.52 8.54 C 279.27 18.51 278.35 42.83 263.42 51.29 C 253.14 57.31 240.85 55.18 229.52 55.55 C 229.31 60.43 229.83 65.35 229.27 70.22 C 227.86 76.85 219.06 77.78 213.96 75.07 C 210.93 73.64 210.20 70.02 210.29 66.99 C 210.27 48.62 210.15 30.26 210.38 11.90 M 229.52 19.63 C 229.46 26.01 229.44 32.39 229.55 38.77 C 235.07 38.70 240.59 38.91 246.11 38.69 C 250.83 38.62 255.74 34.99 255.62 29.93 C 256.20 24.84 252.07 20.14 247.02 19.79 C 241.20 19.36 235.35 19.79 229.52 19.63 Z" />
<path fill="#2d6b40" opacity="1.00" d=" M 305.58 4.02 C 314.93 2.02 324.53 2.96 334.01 2.77 C 337.39 2.66 341.71 3.36 343.16 6.90 C 345.53 11.56 343.37 18.91 337.59 19.46 C 330.06 19.81 322.52 19.44 315.00 19.64 C 310.04 19.80 304.85 21.78 301.95 25.98 C 297.61 31.95 297.88 39.95 299.22 46.85 C 300.63 53.43 306.41 58.32 313.00 59.13 C 321.50 59.97 330.09 59.00 338.61 59.64 C 344.81 60.94 346.03 69.86 341.95 73.99 C 338.62 76.77 334.00 76.10 329.99 76.16 C 321.37 75.96 312.60 76.92 304.15 74.70 C 294.19 72.08 285.26 64.77 281.85 54.89 C 278.15 44.42 278.09 32.28 282.61 22.04 C 286.48 12.57 295.67 5.92 305.58 4.02 Z" />
<path fill="#2d6b40" opacity="1.00" d=" M 350.57 9.65 C 351.50 -0.17 369.33 0.02 369.73 10.05 C 370.02 23.35 369.42 36.68 370.06 49.97 C 369.92 54.09 373.04 57.94 377.13 58.54 C 385.15 59.49 393.38 57.90 401.31 59.69 C 406.80 61.91 406.60 69.57 403.99 73.95 C 397.89 77.49 390.62 75.75 383.95 76.16 C 375.13 76.52 365.31 75.79 358.45 69.57 C 352.35 64.25 350.42 55.78 350.43 48.00 C 350.50 35.21 350.10 22.42 350.57 9.65 Z" />
<path fill="#2d6b40" opacity="1.00" d=" M 99.35 31.41 C 100.77 30.67 102.44 30.90 103.98 30.79 C 110.01 30.85 116.03 30.70 122.05 30.80 C 125.37 30.78 128.91 32.93 129.45 36.40 C 129.84 39.50 129.94 43.21 127.50 45.56 C 124.33 48.28 119.88 47.48 116.04 47.67 C 110.74 47.53 105.39 48.09 100.14 47.29 C 93.07 45.44 92.91 34.13 99.35 31.41 Z" />
<path fill="#2d6b40" opacity="1.00" d=" M 167.41 31.55 C 171.07 30.13 175.15 31.06 178.99 30.81 C 183.63 31.02 188.35 30.35 192.94 31.17 C 197.96 32.74 198.58 38.99 197.16 43.30 C 195.82 46.43 192.22 47.75 189.01 47.61 C 182.15 47.59 175.26 47.99 168.42 47.38 C 161.47 45.59 160.97 34.37 167.41 31.55 Z" />
<path fill="#2d6b40" opacity="1.00" d=" M 308.28 31.28 C 313.10 30.19 318.15 31.02 323.06 30.81 C 326.37 30.89 329.71 30.55 332.99 31.05 C 340.34 33.26 340.01 46.17 332.16 47.39 C 325.46 47.93 318.70 47.59 311.98 47.63 C 308.92 47.85 305.78 46.42 304.20 43.76 C 302.27 39.38 303.45 33.21 308.28 31.28 Z" />
</g>
</svg>
