<?xml version="1.0" encoding="UTF-8" ?>
<!DOCTYPE svg PUBLIC "-//W3C//DTD SVG 1.1//EN" "http://www.w3.org/Graphics/SVG/1.1/DTD/svg11.dtd">
<svg width="345pt" height="266pt" viewBox="0 0 345 266" version="1.1" xmlns="http://www.w3.org/2000/svg">
<g id="#fcfefbff">
</g>
<g id="#2c6a3fff">
<path fill="#2c6a3f" opacity="1.00" d=" M 92.09 20.11 C 112.04 11.51 133.33 5.96 154.98 4.05 C 188.53 0.57 222.82 6.67 253.59 20.32 C 262.33 24.58 271.72 28.29 278.68 35.33 C 285.24 41.73 288.63 50.70 289.96 59.63 C 291.86 73.11 292.65 86.92 290.45 100.42 C 283.99 98.34 277.60 96.00 271.45 93.12 C 272.23 81.80 272.04 70.31 269.62 59.19 C 268.21 51.77 262.28 46.33 255.61 43.40 C 234.03 32.11 210.23 24.59 185.85 23.13 C 170.23 21.61 154.44 23.18 139.07 26.11 C 120.42 29.92 102.22 36.27 85.59 45.60 C 80.50 48.33 76.81 53.40 75.59 59.04 C 72.23 73.16 72.57 87.91 74.38 102.22 C 67.80 103.10 61.32 104.67 54.75 105.68 C 52.71 88.70 52.26 71.26 56.34 54.52 C 58.39 46.11 62.97 38.22 69.61 32.60 C 76.33 27.18 84.30 23.68 92.09 20.11 Z" />
<path fill="#2c6a3f" opacity="1.00" d=" M 132.50 77.26 C 149.95 67.78 170.53 65.21 190.07 67.65 C 210.27 69.77 229.26 77.80 247.27 86.80 C 261.65 94.31 275.64 103.59 291.92 106.39 C 297.96 107.02 304.18 107.26 310.17 106.05 C 315.99 104.86 320.83 100.05 327.03 100.83 C 331.28 101.32 335.27 104.63 335.88 108.99 C 337.19 113.24 334.24 117.05 333.46 121.04 C 334.50 128.32 337.95 134.97 339.55 142.12 C 341.87 151.90 343.40 162.35 340.38 172.15 C 337.39 181.50 329.54 189.02 320.09 191.65 C 316.19 193.00 312.07 193.32 307.99 193.61 C 303.68 202.54 295.50 209.63 285.78 211.95 C 276.30 214.78 265.98 213.61 257.05 209.52 C 260.95 204.14 264.34 198.41 267.80 192.74 C 272.94 194.28 278.84 194.53 283.60 191.71 C 289.23 188.61 292.58 182.09 291.88 175.70 C 291.96 169.58 287.55 164.89 283.29 161.13 C 285.41 155.17 287.71 149.23 288.99 143.01 C 296.70 145.79 303.66 151.16 307.60 158.43 C 310.29 162.92 311.35 168.11 312.35 173.18 C 316.48 172.45 320.37 169.71 321.31 165.44 C 324.09 151.56 316.26 138.89 313.95 125.59 C 304.82 127.97 295.31 127.43 286.00 126.88 C 267.15 125.88 248.50 130.69 231.21 137.87 C 208.45 147.84 189.40 164.07 169.06 177.98 C 153.51 188.51 137.10 197.88 119.60 204.77 C 103.15 210.80 85.57 215.05 67.94 213.43 C 55.19 212.26 42.64 205.05 36.93 193.31 C 28.91 193.04 20.68 193.72 12.85 191.59 C 6.12 189.85 2.34 182.61 2.87 176.00 C 3.76 168.67 2.77 161.13 4.88 153.96 C 7.78 141.21 16.47 130.23 27.60 123.58 C 39.36 116.14 52.93 112.31 66.45 109.58 C 76.87 107.59 87.84 107.04 97.47 102.19 C 110.08 95.21 119.61 83.81 132.50 77.26 M 143.12 94.23 C 129.97 100.82 120.34 112.55 107.40 119.46 C 99.51 123.56 90.77 125.59 82.06 127.04 C 69.21 128.63 56.40 131.50 44.53 136.81 C 37.89 139.84 31.44 144.08 27.58 150.45 C 23.36 157.07 23.32 165.22 23.43 172.81 C 26.79 173.55 30.24 173.73 33.67 173.84 C 34.53 168.05 35.82 162.20 39.11 157.25 C 45.55 146.83 57.62 139.73 69.99 140.20 C 80.44 139.77 90.63 144.81 97.66 152.34 C 104.95 160.23 107.74 171.43 106.52 181.95 C 99.81 184.51 92.84 186.49 85.69 187.28 C 87.38 182.69 87.72 177.62 86.64 172.85 C 84.79 164.78 76.47 158.77 68.21 159.94 C 60.42 161.08 53.79 168.08 53.51 176.02 C 53.15 181.60 55.91 187.25 60.58 190.33 C 64.99 193.53 70.61 194.49 75.96 194.39 C 94.89 193.93 112.89 186.92 129.58 178.45 C 148.19 169.22 164.80 156.63 181.69 144.68 C 201.99 129.77 224.27 116.42 249.19 111.20 C 248.02 109.88 246.44 109.06 244.91 108.25 C 228.99 99.37 212.16 91.59 194.16 88.14 C 177.09 85.29 158.66 85.90 143.12 94.23 Z" />
<path fill="#2c6a3f" opacity="1.00" d=" M 264.80 134.45 C 271.34 133.00 278.13 132.66 284.82 133.02 C 282.21 148.74 275.98 163.61 269.00 177.84 C 260.11 194.86 249.40 211.14 235.65 224.66 C 219.81 240.18 201.40 253.76 180.34 261.21 C 171.20 264.46 161.89 260.18 153.60 256.54 C 140.12 249.99 127.67 241.43 116.33 231.67 C 110.83 227.18 106.05 221.90 101.54 216.44 C 108.63 215.28 115.36 212.67 122.04 210.12 C 128.41 215.70 134.60 221.54 141.62 226.33 C 149.31 231.73 157.51 236.38 166.02 240.36 C 170.78 242.66 176.53 242.39 181.18 239.92 C 197.13 231.87 211.79 221.17 224.03 208.13 C 243.77 187.62 256.37 161.37 264.80 134.45 Z" />
</g>
</svg>
